<svg width="87" height="82" viewBox="0 0 87 82" fill="none" xmlns="http://www.w3.org/2000/svg">
<path fill-rule="evenodd" clip-rule="evenodd" d="M62.595 6.83497C59.7995 3.79607 54.9016 0.31837 48.9208 3.84992C34.7235 12.2332 47.9743 39.2686 56.7283 41.6143C65.4823 43.9599 90.4755 27.1719 82.3719 12.8131C78.9583 6.7644 72.9777 7.3272 69.0373 8.56119C66.8108 9.25844 64.1746 8.55208 62.595 6.83497ZM74.7409 12.5762C74.0411 12.0714 73.0644 12.2294 72.5596 12.9293C72.0547 13.6291 72.2127 14.6057 72.9126 15.1106C73.5645 15.5809 74.197 16.2513 74.756 17.21C75.4679 18.4309 75.7992 19.6488 75.844 20.8495C75.8762 21.7119 76.6014 22.3849 77.4638 22.3527C78.3261 22.3205 78.9991 21.5953 78.9669 20.733C78.9026 19.0118 78.4226 17.2942 77.4556 15.6359C76.6928 14.3276 75.7725 13.3205 74.7409 12.5762Z" fill="url(#paint0_linear_461_5504)"/>
<foreignObject x="-20.8535" y="-14.6543" width="116.063" height="113.155"><div xmlns="http://www.w3.org/1999/xhtml" style="backdrop-filter:blur(12px);clip-path:url(#bgblur_0_461_5504_clip_path);height:100%;width:100%"></div></foreignObject><path data-figma-bg-blur-radius="24" d="M47.2036 10.698C51.0513 9.35908 55.5569 9.39073 60.473 12.2936C66.3011 15.735 69.3053 21.0959 70.3129 27.2153C71.3179 33.3195 70.34 40.1862 68.2187 46.7136C66.0964 53.2443 62.8179 59.4716 59.1817 64.3094C55.5619 69.1253 51.5246 72.6476 47.8558 73.6306C44.187 74.6135 38.9301 73.5816 33.3875 71.2209C27.8194 68.8493 21.8659 65.096 16.7624 60.5013C11.6617 55.909 7.38231 50.4509 5.2006 44.662C3.01352 38.8587 2.93477 32.714 6.26135 26.8196C9.06728 21.8479 12.9528 19.5677 16.9543 18.8033C20.9313 18.0437 24.9908 18.786 28.1818 19.7853C31.5595 20.8431 35.576 19.7669 37.9722 17.162C40.236 14.7011 43.3797 12.0287 47.2036 10.698Z" fill="#10B981" fill-opacity="0.2" stroke="url(#paint1_linear_461_5504)" stroke-linecap="round"/>
<g filter="url(#filter1_d_461_5504)">
<path fill-rule="evenodd" clip-rule="evenodd" d="M21.8314 30.7416C22.9512 29.9338 23.204 28.3713 22.3962 27.2515C21.5884 26.1318 20.0259 25.8789 18.9061 26.6867C17.2556 27.8774 15.7831 29.4889 14.5626 31.5821C13.0154 34.2355 12.2474 36.9835 12.1446 39.7374C12.093 41.1172 13.1698 42.2774 14.5495 42.329C15.9293 42.3805 17.0896 41.3037 17.1411 39.924C17.2128 38.0027 17.7429 36.0542 18.8819 34.1007C19.7763 32.5668 20.7883 31.4942 21.8314 30.7416Z" fill="url(#paint2_linear_461_5504)"/>
</g>
<defs>
<clipPath id="bgblur_0_461_5504_clip_path" transform="translate(20.8535 14.6543)"><path d="M47.2036 10.698C51.0513 9.35908 55.5569 9.39073 60.473 12.2936C66.3011 15.735 69.3053 21.0959 70.3129 27.2153C71.3179 33.3195 70.34 40.1862 68.2187 46.7136C66.0964 53.2443 62.8179 59.4716 59.1817 64.3094C55.5619 69.1253 51.5246 72.6476 47.8558 73.6306C44.187 74.6135 38.9301 73.5816 33.3875 71.2209C27.8194 68.8493 21.8659 65.096 16.7624 60.5013C11.6617 55.909 7.38231 50.4509 5.2006 44.662C3.01352 38.8587 2.93477 32.714 6.26135 26.8196C9.06728 21.8479 12.9528 19.5677 16.9543 18.8033C20.9313 18.0437 24.9908 18.786 28.1818 19.7853C31.5595 20.8431 35.576 19.7669 37.9722 17.162C40.236 14.7011 43.3797 12.0287 47.2036 10.698Z"/>
</clipPath><filter id="filter1_d_461_5504" x="8.88675" y="22.958" width="23.7499" height="29.14" filterUnits="userSpaceOnUse" color-interpolation-filters="sRGB">
<feFlood flood-opacity="0" result="BackgroundImageFix"/>
<feColorMatrix in="SourceAlpha" type="matrix" values="0 0 0 0 0 0 0 0 0 0 0 0 0 0 0 0 0 0 127 0" result="hardAlpha"/>
<feOffset dx="3.25583" dy="3.25583"/>
<feGaussianBlur stdDeviation="3.25583"/>
<feColorMatrix type="matrix" values="0 0 0 0 0.0627451 0 0 0 0 0.72549 0 0 0 0 0.505882 0 0 0 0.6 0"/>
<feBlend mode="normal" in2="BackgroundImageFix" result="effect1_dropShadow_461_5504"/>
<feBlend mode="normal" in="SourceGraphic" in2="effect1_dropShadow_461_5504" result="shape"/>
</filter>
<linearGradient id="paint0_linear_461_5504" x1="36.6049" y1="36.2221" x2="83.3512" y2="5.84958" gradientUnits="userSpaceOnUse">
<stop stop-color="#6EE7B7"/>
<stop offset="1" stop-color="#059669"/>
</linearGradient>
<linearGradient id="paint1_linear_461_5504" x1="0" y1="23.8193" x2="74.8231" y2="72.3802" gradientUnits="userSpaceOnUse">
<stop stop-color="white" stop-opacity="0.25"/>
<stop offset="1" stop-color="white" stop-opacity="0"/>
</linearGradient>
<linearGradient id="paint2_linear_461_5504" x1="20.246" y1="44.0627" x2="34.513" y2="21.5166" gradientUnits="userSpaceOnUse">
<stop stop-color="white"/>
<stop offset="1" stop-color="white" stop-opacity="0.2"/>
</linearGradient>
</defs>
</svg>
