<svg width="280" height="328" viewBox="0 0 280 328" fill="none" xmlns="http://www.w3.org/2000/svg">
<path d="M280 35.0225C280 43.859 272.837 51.0225 264 51.0225H261.31C252.473 51.0225 245.31 58.1859 245.31 67.0225V115.2C245.31 124.037 252.473 131.2 261.31 131.2H264C272.837 131.2 280 138.364 280 147.2V294.507C280 303.343 272.837 310.507 264 310.507H212.333C207.503 310.507 203.587 314.423 203.587 319.253C203.587 324.084 199.671 328 194.84 328H16C7.16344 328 0 320.837 0 312V16C0 7.16345 7.16344 0 16 0H264C272.837 0 280 7.16344 280 16V35.0225Z" fill="#ECFDF5"/>
</svg>
