<svg width="44" height="44" viewBox="0 0 44 44" fill="none" xmlns="http://www.w3.org/2000/svg">
<rect width="44" height="44" rx="22" fill="#222222"/>
<path d="M32 22.0611C32 16.5045 27.5229 12 22 12C16.4771 12 12 16.5045 12 22.0611C12 27.0828 15.6568 31.2452 20.4375 32V24.9694H17.8984V22.0611H20.4375V19.8445C20.4375 17.323 21.9305 15.9301 24.2146 15.9301C25.3084 15.9301 26.4531 16.1266 26.4531 16.1266V18.6026H25.1922C23.95 18.6026 23.5625 19.3782 23.5625 20.1747V22.0611H26.3359L25.8926 24.9694H23.5625V32C28.3432 31.2452 32 27.0828 32 22.0611Z" fill="white"/>
</svg>
