<svg width="44" height="44" viewBox="0 0 44 44" fill="none" xmlns="http://www.w3.org/2000/svg">
<rect width="44" height="44" rx="22" fill="#222222"/>
<path d="M22 12C20.6198 12 19.3242 12.2604 18.1133 12.7812C16.8893 13.3021 15.8249 14.015 14.9199 14.9199C14.015 15.8249 13.3021 16.8893 12.7812 18.1133C12.2604 19.3242 12 20.6198 12 22C12 23.3802 12.2604 24.6758 12.7812 25.8867C13.3021 27.1107 14.015 28.1751 14.9199 29.0801C15.8249 29.985 16.8893 30.6979 18.1133 31.2188C19.3242 31.7396 20.6198 32 22 32C23.3802 32 24.6758 31.7396 25.8867 31.2188C27.1107 30.6979 28.1751 29.985 29.0801 29.0801C29.985 28.1751 30.6979 27.1107 31.2188 25.8867C31.7396 24.6758 32 23.3802 32 22C32 20.6198 31.7396 19.3242 31.2188 18.1133C30.6979 16.8893 29.985 15.8249 29.0801 14.9199C28.1751 14.015 27.1107 13.3021 25.8867 12.7812C24.6758 12.2604 23.3802 12 22 12ZM19.0898 27.1172H16.668V19.793H19.0898V27.1172ZM17.8789 18.7969H17.8594C17.4557 18.7969 17.1302 18.6732 16.8828 18.4258C16.6354 18.1784 16.5117 17.8789 16.5117 17.5273C16.5117 17.1628 16.6387 16.86 16.8926 16.6191C17.1465 16.3783 17.4818 16.2578 17.8984 16.2578C18.3151 16.2578 18.6439 16.3783 18.8848 16.6191C19.1257 16.86 19.2461 17.1628 19.2461 17.5273C19.2461 17.8789 19.1224 18.1784 18.875 18.4258C18.6276 18.6732 18.2956 18.7969 17.8789 18.7969ZM27.8789 27.1172H25.4375V23.1914C25.4375 22.6966 25.3431 22.2962 25.1543 21.9902C24.9655 21.6842 24.6497 21.5312 24.207 21.5312C23.8685 21.5312 23.5983 21.6257 23.3965 21.8145C23.1947 22.0033 23.0482 22.2083 22.957 22.4297C22.931 22.5078 22.9115 22.599 22.8984 22.7031C22.8854 22.8073 22.8789 22.918 22.8789 23.0352V27.1172H20.4375C20.4375 27.1172 20.4375 26.7656 20.4375 26.0625C20.4505 25.3724 20.457 24.5911 20.457 23.7188C20.457 22.8464 20.457 22.013 20.457 21.2188C20.457 20.4375 20.4505 19.9622 20.4375 19.793H22.8789V20.8281C23.0352 20.5807 23.2793 20.3171 23.6113 20.0371C23.9434 19.7572 24.4284 19.6172 25.0664 19.6172C25.8737 19.6172 26.5443 19.8841 27.0781 20.418C27.612 20.9518 27.8789 21.7852 27.8789 22.918V27.1172Z" fill="#FAFAFA"/>
</svg>
